#!OML:ASF X:\für Bonn\!DataBase\2005_08_10_Bjorn_Final\c3d\bjorn.ASF
:FULLY-SPECIFIED
:DEGREES
278
root 2.15489 18.8646 3.24418 -179.268 2.1003 -189.258
lowerback 10.0715 -0.533136 10.5431
upperback 14.3617 2.75735 -2.26286
thorax 10.5873 3.82037 -8.20551
lowerneck -0.697497 12.528 3.1056
upperneck 2.98202 17.2824 -21.8489
head 3.25959 7.97349 -6.37115
rclavicle -2.54444e-014 -7.95139e-015
rhumerus -25.3136 -8.38271 -86.0657
rradius 59.8878
rwrist -7.70427
rhand -12.2418 14.1087
rfingers 7.12502
rthumb 13.824 -15.412
lclavicle -2.54444e-014 -7.95139e-015
lhumerus -32.6571 -8.77085 83.7214
lradius 44.3
lwrist -33.0914
lhand -42.5186 -28.9896
lfingers 7.12502
lthumb -15.3947 0.417194
rfemur -21.1539 -5.08161 12.2411
rtibia 42.3107
rfoot -19.8875 16.3587
rtoes -1.84026
lfemur -25.7437 2.17019 -27.699
ltibia 47.6114
lfoot -13.8046 -6.43083
ltoes -14.0026
279
root 2.17475 18.8542 3.23551 -179.141 2.23545 -188.716
lowerback 10.0638 -0.386583 10.5726
upperback 14.327 2.94519 -2.21846
thorax 10.5965 3.90722 -8.1724
lowerneck -0.642812 12.5312 3.17167
upperneck 2.90754 17.2758 -21.7259
head 3.22106 7.99185 -6.34848
rclavicle 1.35174e-014 1.59028e-014
rhumerus -25.6538 -8.72481 -85.9152
rradius 60.3173
rwrist -7.52447
rhand -12.4913 14.3205
rfingers 7.12502
rthumb 13.5835 -15.2164
lclavicle 1.35174e-014 1.59028e-014
lhumerus -33.0028 -9.0784 84.2059
lradius 44.3588
lwrist -32.0176
lhand -42.5262 -29.3257
lfingers 7.12502
lthumb -15.402 0.0805135
rfemur -21.3151 -5.81657 12.8477
rtibia 42.3694
rfoot -19.5737 17.4324
rtoes -2.3766
lfemur -25.6611 2.2758 -27.394
ltibia 47.3028
lfoot -13.8668 -5.85817
ltoes -13.3212
280
root 2.19433 18.8419 3.22658 -179.03 2.32195 -188.185
lowerback 10.0648 -0.263086 10.5925
upperback 14.2886 3.10127 -2.16494
thorax 10.5862 3.97517 -8.12423
lowerneck -0.555102 12.5471 3.19429
upperneck 2.81471 17.2804 -21.5943
head 3.16827 8.01802 -6.31881
rclavicle -9.54166e-015 2.70347e-014
rhumerus -25.9948 -9.06582 -85.7213
rradius 60.6125
rwrist -7.3503
rhand -12.6841 14.5884
rfingers 7.12502
rthumb 13.3977 -14.9608
lclavicle -9.54166e-015 2.70347e-014
lhumerus -33.365 -9.35758 84.6868
lradius 44.4634
lwrist -30.9293
lhand -42.412 -29.588
lfingers 7.12502
lthumb -15.2921 -0.173317
rfemur -21.4569 -6.59996 13.4349
rtibia 42.4565
rfoot -19.2267 18.5687
rtoes -2.69257
lfemur -25.5341 2.342 -27.0733
ltibia 47.0009
lfoot -13.9958 -5.28974
ltoes -12.2203
281
root 2.21327 18.8249 3.21751 -178.924 2.40792 -187.654
lowerback 10.0522 -0.14223 10.608
upperback 14.2677 3.25572 -2.09306
thorax 10.6017 4.04452 -8.05083
lowerneck -0.557846 12.5759 3.15518
upperneck 2.80513 17.3183 -21.4285
head 3.15116 8.04781 -6.25927
rclavicle 2.62396e-014 -3.97569e-014
rhumerus -26.3073 -9.39593 -85.4858
rradius 60.8047
rwrist -7.22715
rhand -12.8443 14.7993
rfingers 7.12502
rthumb 13.2433 -14.76
lclavicle 2.62396e-014 -3.97569e-014
lhumerus -33.6607 -9.57283 85.1666
lradius 44.5723
lwrist -30.0595
lhand -42.2963 -29.6377
lfingers 7.12502
lthumb -15.1806 -0.214577
rfemur -21.6243 -7.43976 14.0225
rtibia 42.5892
rfoot -18.8583 19.7462
rtoes -2.96136
lfemur -25.3907 2.44543 -26.7282
ltibia 46.7121
lfoot -14.1967 -4.75727
ltoes -10.4295
282
root 2.23184 18.8077 3.20984 -178.812 2.448 -187.127
lowerback 10.0243 -0.0331902 10.6555
upperback 14.257 3.39908 -2.03251
thorax 10.6398 4.11627 -8.00654
lowerneck -0.604129 12.6029 3.15283
upperneck 2.79043 17.3572 -21.2955
head 3.14654 8.07514 -6.21197
rclavicle 3.02153e-014 -1.27222e-014
rhumerus -26.6138 -9.78121 -85.2383
rradius 60.9778
rwrist -7.15754
rhand -12.8866 14.9197
rfingers 7.12502
rthumb 13.2025 -14.6423
lclavicle 3.02153e-014 -1.27222e-014
lhumerus -33.9001 -9.7989 85.5815
lradius 44.7081
lwrist -29.4831
lhand -42.1723 -29.4421
lfingers 7.12502
lthumb -15.0611 -0.00998992
rfemur -21.8031 -8.27486 14.6069
rtibia 42.7595
rfoot -18.4797 20.9105
rtoes -2.90909
lfemur -25.2415 2.50312 -26.3602
ltibia 46.4242
lfoot -14.4641 -4.23665
ltoes -8.11259
283
root 2.24978 18.7877 3.20261 -178.705 2.45009 -186.583
lowerback 9.97697 0.0462327 10.7026
upperback 14.2629 3.50129 -1.93731
thorax 10.6948 4.16789 -7.92097
lowerneck -0.670836 12.6413 3.05504
upperneck 2.77781 17.4088 -21.1546
head 3.13841 8.10442 -6.14634
rclavicle 1.03368e-014 4.29375e-014
rhumerus -26.9105 -10.097 -84.9474
rradius 61.0938
rwrist -7.128
rhand -12.9043 14.9783
rfingers 7.12502
rthumb 13.1854 -14.5847
lclavicle 1.03368e-014 4.29375e-014
lhumerus -34.0938 -9.94353 86.0116
lradius 44.8437
lwrist -29.1092
lhand -42.0942 -29.0712
lfingers 7.12502
lthumb -14.9859 0.366584
rfemur -22.0005 -9.16269 15.2111
rtibia 42.9758
rfoot -18.0988 22.0858
rtoes -2.75967
lfemur -25.0735 2.56843 -25.961
ltibia 46.1413
lfoot -14.8445 -3.70376
ltoes -6.09143
284
root 2.26754 18.7629 3.19588 -178.618 2.4362 -186.07
lowerback 9.92881 0.124495 10.7317
upperback 14.2889 3.60895 -1.84451
thorax 10.7737 4.22581 -7.8259
lowerneck -0.757769 12.6831 2.97274
upperneck 2.77569 17.4694 -21.0244
head 3.14027 8.13623 -6.08385
rclavicle 5.48646e-014 5.24792e-014
rhumerus -27.183 -10.4468 -84.6179
rradius 61.0976
rwrist -7.13147
rhand -12.896 15.1477
rfingers 7.12502
rthumb 13.1934 -14.4148
lclavicle 5.48646e-014 5.24792e-014
lhumerus -34.228 -10.1157 86.4451
lradius 45.0105
lwrist -28.5845
lhand -41.9001 -28.6593
lfingers 7.12502
lthumb -14.799 0.79234
rfemur -22.1833 -10.033 15.7737
rtibia 43.202
rfoot -17.6532 23.2682
rtoes -2.40563
lfemur -24.8783 2.66098 -25.5803
ltibia 45.8656
lfoot -15.2938 -3.20899
ltoes -4.32963
285
root 2.28462 18.738 3.19175 -178.533 2.35477 -185.517
lowerback 9.89603 0.17027 10.8393
upperback 14.3052 3.67661 -1.74687
thorax 10.8301 4.27036 -7.7717
lowerneck -0.823854 12.7212 2.93977
upperneck 2.75412 17.5229 -20.9397
head 3.14067 8.1663 -6.04465
rclavicle 1.35174e-014 3.65764e-014
rhumerus -27.4846 -10.794 -84.2871
rradius 61.0409
rwrist -7.12342
rhand -12.8648 15.2454
rfingers 7.12502
rthumb 13.2235 -14.3152
lclavicle 1.35174e-014 3.65764e-014
lhumerus -34.3327 -10.3625 86.8703
lradius 45.2551
lwrist -27.7198
lhand -41.619 -28.4743
lfingers 7.12502
lthumb -14.5281 0.996971
rfemur -22.355 -10.8917 16.3868
rtibia 43.413
rfoot -17.2332 24.3448
rtoes -2.12032
lfemur -24.6936 2.72796 -25.1435
ltibia 45.6113
lfoot -15.7699 -2.68714
ltoes -3.45173
286
root 2.30107 18.7183 3.18764 -178.494 2.27313 -184.937
lowerback 9.89953 0.211677 10.972
upperback 14.3294 3.74669 -1.61823
thorax 10.8749 4.31831 -7.69802
lowerneck -0.882572 12.7707 2.86246
upperneck 2.77525 17.5966 -20.8276
head 3.14816 8.20348 -5.98893
rclavicle -3.49861e-014 3.49861e-014
rhumerus -27.7851 -11.0976 -83.902
rradius 60.8963
rwrist -7.13564
rhand -12.7677 15.1949
rfingers 7.12502
rthumb 13.3171 -14.3596
lclavicle -3.49861e-014 3.49861e-014
lhumerus -34.4159 -10.5436 87.2981
lradius 45.5183
lwrist -26.8516
lhand -41.3795 -28.5915
lfingers 7.12502
lthumb -14.2973 0.896243
rfemur -22.4353 -11.6971 17.0186
rtibia 43.5697
rfoot -16.7682 25.3815
rtoes -1.81912
lfemur -24.4837 2.85355 -24.6629
ltibia 45.3965
lfoot -16.2535 -2.14634
ltoes -3.1534
287
root 2.3166 18.7042 3.18443 -178.459 2.13686 -184.341
lowerback 9.90316 0.227568 11.142
upperback 14.3454 3.78067 -1.47105
thorax 10.903 4.34906 -7.62563
lowerneck -0.876497 12.8148 2.79738
upperneck 2.74874 17.6524 -20.7698
head 3.13465 8.23672 -5.95858
rclavicle -3.73715e-014 5.56597e-014
rhumerus -28.0813 -11.4008 -83.4593
rradius 60.6587
rwrist -7.10066
rhand -12.5188 15.0715
rfingers 7.12502
rthumb 13.557 -14.4672
lclavicle -3.73715e-014 5.56597e-014
lhumerus -34.4907 -10.7138 87.7189
lradius 45.7681
lwrist -26.0252
lhand -41.1481 -28.6861
lfingers 7.12502
lthumb -14.0744 0.817306
rfemur -22.4744 -12.4189 17.6668
rtibia 43.6641
rfoot -16.3 26.2992
rtoes -1.3825
lfemur -24.2941 2.89799 -24.1456
ltibia 45.2169
lfoot -16.7048 -1.61567
ltoes -2.89297
288
root 2.33057 18.6909 3.18184 -178.43 1.96029 -183.777
lowerback 9.88853 0.23772 11.3183
upperback 14.3711 3.80894 -1.32443
thorax 10.9528 4.38096 -7.55518
lowerneck -0.887961 12.86 2.80887
upperneck 2.75676 17.7202 -20.7746
head 3.14881 8.27108 -5.95467
rclavicle 5.56597e-015 -3.81667e-014
rhumerus -28.3472 -11.703 -82.9891
rradius 60.3234
rwrist -7.02052
rhand -12.227 14.8583
rfingers 7.12502
rthumb 13.8383 -14.6614
lclavicle 5.56597e-015 -3.81667e-014
lhumerus -34.4957 -10.8762 88.1067
lradius 45.9706
lwrist -25.4112
lhand -40.9973 -28.6714
lfingers 7.12502
lthumb -13.929 0.842016
rfemur -22.4803 -13.0835 18.2826
rtibia 43.704
rfoot -15.8607 27.0907
rtoes -1.12087
lfemur -24.1291 2.89309 -23.6436
ltibia 45.0721
lfoot -17.1013 -1.14584
ltoes -2.51105
289
root 2.34358 18.6792 3.18034 -178.387 1.76018 -183.226
lowerback 9.8847 0.256036 11.5088
upperback 14.3597 3.8391 -1.17376
thorax 10.9535 4.40608 -7.4918
lowerneck -0.830965 12.8905 2.88025
upperneck 2.75918 17.7648 -20.797
head 3.15389 8.29917 -5.97144
rclavicle -5.24792e-014 4.29375e-014
rhumerus -28.6528 -12.0027 -82.4865
rradius 59.8829
rwrist -6.9058
rhand -11.9265 14.7212
rfingers 7.12502
rthumb 14.1278 -14.7785
lclavicle -5.24792e-014 4.29375e-014
lhumerus -34.5416 -11.056 88.4879
lradius 46.1651
lwrist -24.9822
lhand -40.9685 -28.4524
lfingers 7.12502
lthumb -13.9013 1.06297
rfemur -22.4909 -13.6436 18.8869
rtibia 43.7125
rfoot -15.4685 27.7354
rtoes -0.923646
lfemur -24.0035 2.77792 -23.1321
ltibia 44.9417
lfoot -17.4091 -0.620321
ltoes -2.1907
